<svg width="883" height="332" viewBox="0 0 883 332" fill="none" xmlns="http://www.w3.org/2000/svg">
<g filter="url(#filter0_dddi_101_20)">
<path d="M211.536 60.112L201.744 78.256L210.672 83.44L197.712 145.36L184.752 267.184L158.832 268.336L160.272 247.6L163.44 183.952L166.32 144.496L144.432 197.2L124.848 252.208L121.968 260.272L104.4 254.8L101.232 226.864L91.44 153.712L80.784 203.824L69.84 263.44L45.072 256.24L55.728 192.304L79.92 57.808L115.056 68.176L118.224 164.08L119.952 196.912L142.128 133.84L174.096 54.352L215.568 50.896L211.536 60.112ZM300.078 161.2L299.214 258.544L275.886 253.936L270.99 176.464L230.67 198.352L211.086 235.216L183.15 239.824L196.398 205.552L183.438 196.624L204.462 185.392L242.19 97.264L243.054 92.08L263.214 46.576L306.99 39.088L302.67 83.728L300.654 136.72L320.526 150.544L300.078 161.2ZM270.414 151.408L269.838 109.648L246.51 162.928L270.414 151.408ZM451.211 92.944L379.211 191.152L328.235 269.776L297.13 262L311.818 236.656L319.883 173.296L329.099 113.392L326.219 114.256L310.378 96.976L334.859 88.048L335.723 92.656L338.027 86.896L359.339 79.12L408.299 62.128L430.763 78.256L451.211 92.944ZM408.011 92.944L355.595 107.056L348.395 185.968L408.011 92.944ZM548.507 56.08L522.587 198.64L510.779 250.192L490.619 240.112V233.776L480.827 235.504L460.667 166.384L453.755 196.912L437.051 264.304L433.883 280.432L407.675 264.304L428.411 175.888L449.147 83.728L475.643 98.416L473.339 107.92L479.675 138.16L495.227 200.368L499.547 176.752L505.307 136.144L520.859 48.016L548.507 56.08ZM597.051 200.368L641.691 182.224L663.291 197.488L602.523 227.44L555.579 254.512L515.259 237.232L557.595 216.784L567.387 162.928L568.539 156.88L548.091 142.192L574.299 129.232L582.075 89.776L578.331 91.216L555.003 75.376L640.251 41.104L663.291 56.08L625.275 73.36L614.043 77.68L607.707 113.392L608.571 113.104L635.643 100.72L654.075 114.544L621.531 132.976L602.523 143.92L600.507 162.352L597.051 200.368ZM713.711 190.576L724.367 213.616L737.327 220.816L716.303 242.992L700.751 244.72L646.319 260.56L631.343 249.04L623.279 243.856L653.231 232.048L691.247 218.8L677.423 191.728L642.287 126.64L662.735 104.464L665.615 106.48L680.591 96.4L711.119 72.496L712.559 75.088L716.879 52.048L747.695 66.16L735.023 117.136L730.415 131.824L706.223 133.84L708.239 109.936L683.183 127.216L713.711 190.576ZM803.149 190.576L813.805 213.616L826.765 220.816L805.741 242.992L790.189 244.72L735.757 260.56L720.781 249.04L712.717 243.856L742.669 232.048L780.685 218.8L766.861 191.728L731.725 126.64L752.173 104.464L755.053 106.48L770.029 96.4L800.557 72.496L801.997 75.088L806.317 52.048L837.133 66.16L824.461 117.136L819.853 131.824L795.661 133.84L797.677 109.936L772.621 127.216L803.149 190.576Z" fill="#5DC4D2"/>
</g>
<defs>
<filter id="filter0_dddi_101_20" x="0.0720062" y="0.0880127" width="882.061" height="331.344" filterUnits="userSpaceOnUse" color-interpolation-filters="sRGB">
<feFlood flood-opacity="0" result="BackgroundImageFix"/>
<feColorMatrix in="SourceAlpha" type="matrix" values="0 0 0 0 0 0 0 0 0 0 0 0 0 0 0 0 0 0 127 0" result="hardAlpha"/>
<feOffset dx="6" dy="4"/>
<feGaussianBlur stdDeviation="4"/>
<feComposite in2="hardAlpha" operator="out"/>
<feColorMatrix type="matrix" values="0 0 0 0 0.364375 0 0 0 0 0.769725 0 0 0 0 0.825 0 0 0 1 0"/>
<feBlend mode="normal" in2="BackgroundImageFix" result="effect1_dropShadow_101_20"/>
<feColorMatrix in="SourceAlpha" type="matrix" values="0 0 0 0 0 0 0 0 0 0 0 0 0 0 0 0 0 0 127 0" result="hardAlpha"/>
<feOffset dy="6"/>
<feGaussianBlur stdDeviation="22.5"/>
<feComposite in2="hardAlpha" operator="out"/>
<feColorMatrix type="matrix" values="0 0 0 0 0.563889 0 0 0 0 0.918333 0 0 0 0 0.966667 0 0 0 1 0"/>
<feBlend mode="normal" in2="effect1_dropShadow_101_20" result="effect2_dropShadow_101_20"/>
<feColorMatrix in="SourceAlpha" type="matrix" values="0 0 0 0 0 0 0 0 0 0 0 0 0 0 0 0 0 0 127 0" result="hardAlpha"/>
<feOffset dy="4"/>
<feGaussianBlur stdDeviation="2"/>
<feComposite in2="hardAlpha" operator="out"/>
<feColorMatrix type="matrix" values="0 0 0 0 0.563889 0 0 0 0 0.918333 0 0 0 0 0.966667 0 0 0 1 0"/>
<feBlend mode="normal" in2="effect2_dropShadow_101_20" result="effect3_dropShadow_101_20"/>
<feBlend mode="normal" in="SourceGraphic" in2="effect3_dropShadow_101_20" result="shape"/>
<feColorMatrix in="SourceAlpha" type="matrix" values="0 0 0 0 0 0 0 0 0 0 0 0 0 0 0 0 0 0 127 0" result="hardAlpha"/>
<feOffset dx="-1" dy="-1"/>
<feGaussianBlur stdDeviation="4"/>
<feComposite in2="hardAlpha" operator="arithmetic" k2="-1" k3="1"/>
<feColorMatrix type="matrix" values="0 0 0 0 0.563889 0 0 0 0 0.918333 0 0 0 0 0.966667 0 0 0 1 0"/>
<feBlend mode="normal" in2="shape" result="effect4_innerShadow_101_20"/>
</filter>
</defs>
</svg>
